# This file uses centimeters as units for non-parametric coordinates.

mtllib o1.mtl
g default
v -0.989276 -0.451824 0.451824
v 0.989277 -0.218231 0.218231
v -0.989276 0.451824 0.451824
v 0.989277 0.218231 0.218231
v -0.989276 0.451824 -0.451824
v 0.989277 0.218231 -0.218231
v -0.989276 -0.451824 -0.451824
v 0.989277 -0.218231 -0.218231
vt 0.000000 0.000000
vt 1.000000 0.000000
vt 0.000000 1.000000
vt 1.000000 1.000000
vt 0.000000 2.000000
vt 1.000000 2.000000
vt 0.000000 3.000000
vt 1.000000 3.000000
vt 0.000000 4.000000
vt 1.000000 4.000000
vt 2.000000 0.000000
vt 2.000000 1.000000
vt -1.000000 0.000000
vt -1.000000 1.000000
vn 0.113225 0.000000 0.993569
vn 0.113225 0.000000 0.993569
vn 0.113225 0.000000 0.993569
vn 0.113225 0.000000 0.993569
vn 0.113225 0.000000 0.993569
vn 0.113225 0.000000 0.993569
vn 0.113225 0.993569 0.000000
vn 0.113225 0.993569 0.000000
vn 0.113225 0.993569 0.000000
vn 0.113225 0.993569 0.000000
vn 0.113225 0.993569 0.000000
vn 0.113225 0.993569 0.000000
vn 0.113225 0.000000 -0.993569
vn 0.113225 0.000000 -0.993569
vn 0.113225 0.000000 -0.993569
vn 0.113225 0.000000 -0.993569
vn 0.113225 0.000000 -0.993569
vn 0.113225 0.000000 -0.993569
vn 0.113225 -0.993569 0.000000
vn 0.113225 -0.993569 0.000000
vn 0.113225 -0.993569 0.000000
vn 0.113225 -0.993569 0.000000
vn 0.113225 -0.993569 0.000000
vn 0.113225 -0.993569 0.000000
vn 1.000000 0.000000 0.000000
vn 1.000000 0.000000 0.000000
vn 1.000000 0.000000 0.000000
vn 1.000000 0.000000 0.000000
vn 1.000000 0.000000 0.000000
vn 1.000000 0.000000 0.000000
vn -1.000000 0.000000 0.000000
vn -1.000000 0.000000 0.000000
vn -1.000000 0.000000 0.000000
vn -1.000000 0.000000 0.000000
vn -1.000000 0.000000 0.000000
vn -1.000000 0.000000 0.000000
s off
g pCube1
usemtl initialShadingGroup1
f 1/1/1 2/2/2 3/3/3
f 2/2/4 4/4/5 3/3/6
f 3/3/7 4/4/8 5/5/9
f 4/4/10 6/6/11 5/5/12
f 5/5/13 6/6/14 7/7/15
f 6/6/16 8/8/17 7/7/18
f 7/7/19 8/8/20 1/9/21
f 8/8/22 2/10/23 1/9/24
f 2/2/25 8/11/26 4/4/27
f 8/11/28 6/12/29 4/4/30
f 7/13/31 1/1/32 5/14/33
f 1/1/34 3/3/35 5/14/36
