# This file uses centimeters as units for non-parametric coordinates.

mtllib pipe.mtl
g default
v 0.323223 -0.176777 -0.603553
v -0.009592 -0.188199 -0.681535
v -0.303658 -0.311254 -0.557596
v -0.421376 -0.488363 -0.289730
v -0.307666 -0.636656 -0.003273
v -0.015734 -0.686744 0.167737
v 0.317823 -0.615190 0.143283
v 0.536928 -0.455475 -0.065192
v 0.539061 -0.282333 -0.360141
v 0.176777 0.676777 -0.103553
v -0.156039 0.665355 -0.181535
v -0.450104 0.542300 -0.057596
v -0.567823 0.365190 0.210270
v -0.454113 0.216897 0.496727
v -0.162180 0.166810 0.667737
v 0.171376 0.238363 0.643283
v 0.390482 0.398078 0.434808
v 0.392615 0.571221 0.139859
v 0.426777 0.926777 -0.457107
v -0.238855 0.903933 -0.613069
v -0.826985 0.657823 -0.365192
v -1.062422 0.303603 0.170541
v -0.835002 0.007018 0.743453
v -0.251137 -0.093157 1.085473
v 0.415976 0.049950 1.036566
v 0.854187 0.369379 0.619616
v 0.858452 0.715665 0.029718
v 0.573223 0.073223 -0.957107
v -0.092408 0.050380 -1.113069
v -0.680539 -0.195731 -0.865192
v -0.915976 -0.549950 -0.329459
v -0.688555 -0.846535 0.243453
v -0.104690 -0.946711 0.585473
v 0.562422 -0.803603 0.536566
v 1.000634 -0.484174 0.119616
v 1.004899 -0.137888 -0.470282
vt 0.000000 1.000000
vt 0.111111 1.000000
vt 0.222222 1.000000
vt 0.333333 1.000000
vt 0.444444 1.000000
vt 0.555556 1.000000
vt 0.666667 1.000000
vt 0.777778 1.000000
vt 0.888889 1.000000
vt 1.000000 1.000000
vt 0.000000 0.750000
vt 0.111111 0.750000
vt 0.222222 0.750000
vt 0.333333 0.750000
vt 0.444444 0.750000
vt 0.555556 0.750000
vt 0.666667 0.750000
vt 0.777778 0.750000
vt 0.888889 0.750000
vt 1.000000 0.750000
vt 0.000000 0.500000
vt 0.111111 0.500000
vt 0.222222 0.500000
vt 0.333333 0.500000
vt 0.444444 0.500000
vt 0.555556 0.500000
vt 0.666667 0.500000
vt 0.777778 0.500000
vt 0.888889 0.500000
vt 1.000000 0.500000
vt 0.000000 0.250000
vt 0.111111 0.250000
vt 0.222222 0.250000
vt 0.333333 0.250000
vt 0.444444 0.250000
vt 0.555556 0.250000
vt 0.666667 0.250000
vt 0.777778 0.250000
vt 0.888889 0.250000
vt 1.000000 0.250000
vt 0.000000 0.000000
vt 0.111111 0.000000
vt 0.222222 0.000000
vt 0.333333 0.000000
vt 0.444444 0.000000
vt 0.555556 0.000000
vt 0.666667 0.000000
vt 0.777778 0.000000
vt 0.888889 0.000000
vt 1.000000 0.000000
vn -0.177914 -0.519934 0.835473
vn -0.177914 -0.519934 0.835473
vn -0.177914 -0.519934 0.835473
vn -0.177914 -0.519934 0.835473
vn 0.489199 -0.376826 0.786566
vn 0.489199 -0.376826 0.786566
vn 0.489199 -0.376826 0.786566
vn 0.489199 -0.376826 0.786566
vn 0.927410 -0.057398 0.369616
vn 0.927410 -0.057398 0.369616
vn 0.927410 -0.057398 0.369616
vn 0.927410 -0.057398 0.369616
vn 0.931676 0.288888 -0.220281
vn 0.931676 0.288888 -0.220281
vn 0.931676 0.288888 -0.220281
vn 0.931676 0.288888 -0.220281
vn 0.500000 0.500000 -0.707107
vn 0.500000 0.500000 -0.707107
vn 0.500000 0.500000 -0.707107
vn 0.500000 0.500000 -0.707107
vn -0.165631 0.477156 -0.863069
vn -0.165631 0.477156 -0.863069
vn -0.165631 0.477156 -0.863069
vn -0.165631 0.477156 -0.863069
vn -0.753762 0.231046 -0.615192
vn -0.753762 0.231046 -0.615192
vn -0.753762 0.231046 -0.615192
vn -0.753762 0.231046 -0.615192
vn -0.989199 -0.123174 -0.079459
vn -0.989199 -0.123174 -0.079459
vn -0.989199 -0.123174 -0.079459
vn -0.989199 -0.123174 -0.079459
vn -0.761779 -0.419759 0.493453
vn -0.761779 -0.419759 0.493453
vn -0.761779 -0.419759 0.493453
vn -0.761779 -0.419759 0.493453
vn -0.146447 0.853553 0.500000
vn -0.146447 0.853553 0.500000
vn -0.146447 0.853553 0.500000
vn -0.146447 0.853553 0.500000
vn -0.146447 0.853553 0.500000
vn -0.146447 0.853553 0.500000
vn -0.146447 0.853553 0.500000
vn -0.146447 0.853553 0.500000
vn -0.146447 0.853553 0.500000
vn -0.146447 0.853553 0.500000
vn -0.146447 0.853553 0.500000
vn -0.146447 0.853553 0.500000
vn -0.146447 0.853553 0.500000
vn -0.146447 0.853553 0.500000
vn -0.146447 0.853553 0.500000
vn -0.146447 0.853553 0.500000
vn -0.146447 0.853553 0.500000
vn -0.146447 0.853553 0.500000
vn 0.177914 0.519934 -0.835473
vn 0.177914 0.519934 -0.835473
vn 0.177914 0.519934 -0.835473
vn 0.177914 0.519934 -0.835473
vn -0.489199 0.376826 -0.786566
vn -0.489199 0.376826 -0.786566
vn -0.489199 0.376826 -0.786566
vn -0.489199 0.376826 -0.786566
vn -0.927410 0.057398 -0.369616
vn -0.927410 0.057398 -0.369616
vn -0.927410 0.057398 -0.369616
vn -0.927410 0.057398 -0.369616
vn -0.931676 -0.288888 0.220282
vn -0.931676 -0.288888 0.220281
vn -0.931676 -0.288888 0.220281
vn -0.931676 -0.288888 0.220281
vn -0.500000 -0.500000 0.707107
vn -0.500000 -0.500000 0.707107
vn -0.500000 -0.500000 0.707107
vn -0.500000 -0.500000 0.707107
vn 0.165631 -0.477156 0.863069
vn 0.165631 -0.477156 0.863069
vn 0.165631 -0.477156 0.863069
vn 0.165631 -0.477156 0.863069
vn 0.753762 -0.231046 0.615192
vn 0.753762 -0.231046 0.615192
vn 0.753762 -0.231046 0.615192
vn 0.753762 -0.231046 0.615192
vn 0.989199 0.123174 0.079459
vn 0.989199 0.123174 0.079459
vn 0.989199 0.123174 0.079459
vn 0.989199 0.123174 0.079459
vn 0.761779 0.419759 -0.493453
vn 0.761779 0.419759 -0.493453
vn 0.761779 0.419759 -0.493453
vn 0.761779 0.419759 -0.493453
vn 0.146447 -0.853553 -0.500000
vn 0.146447 -0.853553 -0.500000
vn 0.146447 -0.853553 -0.500000
vn 0.146447 -0.853553 -0.500000
vn 0.146447 -0.853553 -0.500000
vn 0.146447 -0.853553 -0.500000
vn 0.146447 -0.853553 -0.500000
vn 0.146447 -0.853553 -0.500000
vn 0.146447 -0.853553 -0.500000
vn 0.146447 -0.853553 -0.500000
vn 0.146447 -0.853553 -0.500000
vn 0.146447 -0.853553 -0.500000
vn 0.146447 -0.853553 -0.500000
vn 0.146447 -0.853553 -0.500000
vn 0.146447 -0.853553 -0.500000
vn 0.146447 -0.853553 -0.500000
vn 0.146447 -0.853553 -0.500000
vn 0.146447 -0.853553 -0.500000
s 1
g pPipe1
usemtl initialShadingGroup
f 2/2/1 1/1/2 11/12/3
f 1/1/2 10/11/4 11/12/3
s 2
f 3/3/5 2/2/6 12/13/7
f 2/2/6 11/12/8 12/13/7
s 3
f 4/4/9 3/3/10 13/14/11
f 3/3/10 12/13/12 13/14/11
s 4
f 5/5/13 4/4/14 14/15/15
f 4/4/14 13/14/16 14/15/15
s 5
f 6/6/17 5/5/18 15/16/19
f 5/5/18 14/15/20 15/16/19
s 6
f 7/7/21 6/6/22 16/17/23
f 6/6/22 15/16/24 16/17/23
s 7
f 8/8/25 7/7/26 17/18/27
f 7/7/26 16/17/28 17/18/27
s 8
f 9/9/29 8/8/30 18/19/31
f 8/8/30 17/18/32 18/19/31
s 9
f 1/10/33 9/9/34 10/20/35
f 9/9/34 18/19/36 10/20/35
s 10
f 19/21/37 20/22/38 10/11/39
f 11/12/40 10/11/39 20/22/38
f 20/22/38 21/23/41 11/12/40
f 12/13/42 11/12/40 21/23/41
f 21/23/41 22/24/43 12/13/42
f 13/14/44 12/13/42 22/24/43
f 22/24/43 23/25/45 13/14/44
f 14/15/46 13/14/44 23/25/45
f 23/25/45 24/26/47 14/15/46
f 15/16/48 14/15/46 24/26/47
f 24/26/47 25/27/49 15/16/48
f 16/17/50 15/16/48 25/27/49
f 25/27/49 26/28/51 16/17/50
f 17/18/52 16/17/50 26/28/51
f 26/28/51 27/29/53 17/18/52
f 18/19/54 17/18/52 27/29/53
f 27/29/53 19/30/37 18/19/54
f 10/20/39 18/19/54 19/30/37
s 11
f 20/22/55 19/21/56 29/32/57
f 19/21/56 28/31/58 29/32/57
s 12
f 21/23/59 20/22/60 30/33/61
f 20/22/60 29/32/62 30/33/61
s 13
f 22/24/63 21/23/64 31/34/65
f 21/23/64 30/33/66 31/34/65
s 14
f 23/25/67 22/24/68 32/35/69
f 22/24/68 31/34/70 32/35/69
s 15
f 24/26/71 23/25/72 33/36/73
f 23/25/72 32/35/74 33/36/73
s 16
f 25/27/75 24/26/76 34/37/77
f 24/26/76 33/36/78 34/37/77
s 17
f 26/28/79 25/27/80 35/38/81
f 25/27/80 34/37/82 35/38/81
s 18
f 27/29/83 26/28/84 36/39/85
f 26/28/84 35/38/86 36/39/85
s 19
f 19/30/87 27/29/88 28/40/89
f 27/29/88 36/39/90 28/40/89
s 20
f 29/32/91 28/31/92 2/42/93
f 28/31/92 1/41/94 2/42/93
f 30/33/95 29/32/91 3/43/96
f 29/32/91 2/42/93 3/43/96
f 31/34/97 30/33/95 4/44/98
f 30/33/95 3/43/96 4/44/98
f 32/35/99 31/34/97 5/45/100
f 31/34/97 4/44/98 5/45/100
f 33/36/101 32/35/99 6/46/102
f 32/35/99 5/45/100 6/46/102
f 34/37/103 33/36/101 7/47/104
f 33/36/101 6/46/102 7/47/104
f 35/38/105 34/37/103 8/48/106
f 34/37/103 7/47/104 8/48/106
f 36/39/107 35/38/105 9/49/108
f 35/38/105 8/48/106 9/49/108
f 28/40/92 36/39/107 1/50/94
f 36/39/107 9/49/108 1/50/94
